<svg xmlns="http://www.w3.org/2000/svg" width="91.524" height="102.604" viewBox="0 0 91.524 102.604">
  <path id="Tracé_1779" data-name="Tracé 1779" d="M689.805,503.552c9.791,19.376,4.957,43.3-10.268,59.01a56.961,56.961,0,0,1-30.209,16.192,51.041,51.041,0,0,1-33.834-4.35c-4.833-2.417-14.984-7.009-11.359-11.6,2.417-3.625,9.667-5.075,14.742-3.383,12.083,4.108,23.2,14.017,36.976,10.392a46.555,46.555,0,0,0,32.868-32.868,44.46,44.46,0,0,0-14.984-47.126c-13.534-10.875-32.626-11.6-46.159-.483-10.15,8.217-14.017,22.476-7.25,34.076,2.658,4.35,6.525,7.975,11.6,8.459,3.383.483,10.875-.483,9.425-3.384-1.933-4.592-9.425-4.592-13.775-8.458-2.9-2.417-3.384-6.283-2.9-9.908.967-6.525,5.8-14.742,12.567-13.534,2.9.483-.242,7.25,2.417,9.184,8.459,6.042,19.092,13.05,13.051,24.409-3.142,5.8-9.425,8.7-15.709,8.942-12.084.241-22.234-9.667-24.409-21.509-2.175-12.325,2.9-23.926,12.325-31.659,18.367-15.226,45.918-9.184,59.36,8.7A47.438,47.438,0,0,1,689.805,503.552Z" transform="translate(-603.369 -477.283)" fill="#1e9690"/>
</svg>
