<svg xmlns="http://www.w3.org/2000/svg" width="423.51" height="442.713" viewBox="0 0 423.51 442.713">
  <g id="Groupe_139" data-name="Groupe 139" transform="translate(-595.282 135.925)">
    <path id="Tracé_16" data-name="Tracé 16" d="M1540.089,882.739c.964-14.165-1.647-43.672-22.276-45.762s-48.31,0-48.31,0-4.961,34.209,1.567,88.785-55.456,60.127-65.118,28.791,19.942-28.007,23.6-21.218,5.484,19.585,15.668,13.318,2.792-26.05-12.273-30.03-29.6,3.917-31.774,20.107,4.355,37.836,30.729,39.94,44.229-15.912,43.609-44.582-15.929-61.425,11.49-61.425S1534.164,894.815,1540.089,882.739Z" transform="translate(-544.52 -670.048)" fill="#1e8d88"/>
    <path id="Tracé_17" data-name="Tracé 17" d="M278.809,487.517c0,53.5-23.72,152.759,56.841,149.1,40.281-1.829,70.359-17.46,89.893-38.081a40.388,40.388,0,0,1,9.049-7.417c42.974-6.937,87.505-27.267,102.994-70.83,17.425-47.436-9.681-99.712-57.116-116.169-33.883-11.617-72.606,6.776-85.191,39.691-13.553,35.819,5.808,83.254,46.468,88.095,18.393,1.936,36.787-4.84,45.5-21.3,4.84-10.649,5.809-25.17-5.808-32.914-7.745-3.872-16.457,2.9-24.2,2.9-7.745.968-9.681-8.713-6.777-14.521,10.649-23.234,40.659-17.425,55.18-.968,10.649,12.585,13.553,30.01,8.713,45.5-6.776,21.3-24.2,36.787-45.5,43.563-31.946,9.681-65.829-3.872-86.159-30.01-37.755-48.4-19.361-111.329,4.84-160.7,7.745-15.489,16.457-30.978,15.489-48.4-.968-24.2-30.978-30.01-51.308-28.074-32.915,3.872-65.452,1.312-77.069,34.226-18.393,56.148,37.377,110.017,70.292,147.772,3.872,4.84,7.745,9.681,8.713,14.521,13.553,46.468,52.276,86.159,102.616,82.286,30.01-2.9,57.116-21.3,68.733-49.372,8.713-22.266,4.84-46.468-9.681-65.829-24.2-31.947-75.51-37.755-100.68-1.936-13.553,19.361-7.745,43.563,7.745,58.084-4.84-17.425-9.681-36.787,3.872-52.276a54.26,54.26,0,0,1,61.957-15.489c21.3,8.713,34.851,30.01,35.819,52.276.968,23.234-11.617,43.563-29.042,58.084,24.2-18.393,36.787-51.308,25.17-80.35-15.489-36.787-60.989-43.563-92.935-27.106,16.457-14.521,42.6-17.425,62.925-8.713A65.562,65.562,0,0,1,525,471.886c10.649,30.01-2.9,61.957-30.01,80.35-46.468,30.01-106.488,6.777-128.754-40.659-6.777-13.553-5.808-28.074-13.553-39.691-30.978-43.563-71.638-110.361-10.649-145.211,10.649-4.84,27.106-5.808,30.978,6.777,2.9,10.649,1.936,22.266,0,33.883C359.46,430.259,340.1,507.7,405.928,547.4c30.01,17.425,66.8,16.457,92.935-6.777,27.106-24.2,29.042-69.7-3.872-90.031-18.393-11.617-42.6-7.745-56.148,8.713-9.681,12.585-8.713,32.915,6.776,41.627,10.649,5.808,24.2-2.9,29.042.968,8.713,7.745-12.585,19.362-23.234,21.3-25.17,2.9-46.468-19.362-49.372-43.563s11.617-48.4,35.819-56.148c29.042-8.713,59.053.968,78.414,24.2,11.617,15.489,16.457,33.883,14.521,53.244-3.872,28.074-24.2,50.34-50.34,60.989-52.276,20.33-102.616-21.3-127.786-67.765-11.617-19.361-42.6-28.074-67.349-20.224C281.118,482.39,278.809,487.517,278.809,487.517Z" transform="matrix(-0.819, 0.574, -0.574, -0.819, 1405.203, 230.196)" fill="#1e8d88"/>
  </g>
</svg>
