<svg xmlns="http://www.w3.org/2000/svg" width="181.565" height="233.784" viewBox="0 0 181.565 233.784">
  <path id="Tracé_15" data-name="Tracé 15" d="M276.219,420.787c0,35.731-15.84,102.013,37.958,99.57,26.9-1.221,46.986-11.66,60.031-25.431a26.971,26.971,0,0,1,6.043-4.953c28.7-4.633,58.436-18.209,68.78-47.3,11.637-31.678-6.465-66.588-38.143-77.578C388.262,357.336,362.4,369.619,354,391.6c-9.051,23.92,3.879,55.6,31.031,58.83,12.283,1.293,24.566-3.232,30.385-14.223,3.232-7.111,3.879-16.809-3.879-21.98-5.172-2.586-10.99,1.939-16.162,1.939-5.172.646-6.465-5.818-4.525-9.7,7.111-15.516,27.152-11.637,36.85-.646a32.288,32.288,0,0,1,5.818,30.385c-4.525,14.223-16.162,24.566-30.385,29.092-21.334,6.465-43.961-2.586-57.537-20.041-25.213-32.324-12.93-74.346,3.232-107.317,5.172-10.344,10.99-20.687,10.344-32.324-.646-16.162-20.687-20.041-34.264-18.748-21.98,2.586-43.709.876-51.467,22.857-12.283,37.5,24.961,73.47,46.941,98.683,2.586,3.232,5.172,6.465,5.818,9.7,9.051,31.031,34.91,57.537,68.527,54.951,20.041-1.939,38.143-14.223,45.9-32.971,5.818-14.869,3.232-31.031-6.465-43.961-16.162-21.334-50.426-25.213-67.234-1.293-9.051,12.93-5.172,29.092,5.172,38.789-3.232-11.637-6.465-24.566,2.586-34.91a36.235,36.235,0,0,1,41.375-10.344c14.223,5.818,23.273,20.041,23.92,34.91.646,15.516-7.758,29.092-19.395,38.789,16.162-12.283,24.566-34.264,16.809-53.658-10.344-24.566-40.729-29.092-62.063-18.1,10.99-9.7,28.445-11.637,42.022-5.818a43.782,43.782,0,0,1,23.273,25.859c7.111,20.041-1.939,41.375-20.041,53.658-31.031,20.041-71.113,4.525-85.983-27.152-4.525-9.051-3.879-18.748-9.051-26.506-20.687-29.092-47.84-73.7-7.111-96.973,7.111-3.232,18.1-3.879,20.688,4.525,1.939,7.111,1.293,14.869,0,22.627-9.051,42.022-21.98,93.74,21.981,120.246,20.041,11.637,44.607,10.99,62.063-4.525,18.1-16.162,19.395-46.547-2.586-60.123a28.8,28.8,0,0,0-37.5,5.818c-6.465,8.4-5.818,21.98,4.525,27.8,7.111,3.879,16.162-1.939,19.395.646,5.818,5.172-8.4,12.93-15.516,14.223-16.809,1.939-31.031-12.93-32.971-29.092a35.113,35.113,0,0,1,23.92-37.5c19.395-5.818,39.436.647,52.365,16.162a49.869,49.869,0,0,1,9.7,35.557c-2.586,18.748-16.162,33.617-33.617,40.729-34.91,13.576-68.527-14.223-85.336-45.254-7.758-12.93-28.445-18.748-44.976-13.506C277.761,417.362,276.219,420.787,276.219,420.787Z" transform="translate(-271.014 -286.639)" fill="#1e8d88"/>
</svg>
