<svg xmlns="http://www.w3.org/2000/svg" xmlns:xlink="http://www.w3.org/1999/xlink" version="1.1" x="0px" y="0px" viewBox="0 0 100 125" enable-background="new 0 0 100 100" xml:space="preserve"><path d="M26.691,49.461c-4.548,0-8.234,3.687-8.234,8.234v26.349c0,4.548,3.687,8.234,8.234,8.234c4.548,0,8.234-3.687,8.234-8.234  V57.695C34.925,53.147,31.239,49.461,26.691,49.461z M73.309,49.461c-4.548,0-8.234,3.687-8.234,8.234v26.349  c0,4.548,3.687,8.234,8.234,8.234c4.548,0,8.234-3.687,8.234-8.234V57.695C81.543,53.147,77.857,49.461,73.309,49.461z   M88.673,56.545V46.394C88.673,25.07,71.324,7.722,50,7.722S11.327,25.07,11.327,46.394v10.029C7.606,58.029,5,61.728,5,66.039  V76.51c0,5.783,4.688,10.471,10.471,10.471h0V55.567h0c-0.033,0-0.098-9.173-0.098-9.173c0-19.093,15.534-34.627,34.627-34.627  s34.627,15.534,34.627,34.627v9.3c-0.033,0-0.099-0.005-0.099-0.005v31.414h0C90.312,87.104,95,82.416,95,76.632V66.161  C95,61.851,92.394,58.151,88.673,56.545z"/><text x="0" y="115" fill="#000000" font-size="5px" font-weight="bold" font-family="'Helvetica Neue', Helvetica, Arial-Unicode, Arial, Sans-serif">Created by Ardi Nurfiyanto</text><text x="0" y="120" fill="#000000" font-size="5px" font-weight="bold" font-family="'Helvetica Neue', Helvetica, Arial-Unicode, Arial, Sans-serif">from the Noun Project</text></svg>